<svg xmlns="http://www.w3.org/2000/svg" xmlns:xlink="http://www.w3.org/1999/xlink" width="500" zoomAndPan="magnify" viewBox="0 0 375 374.999991" height="500" preserveAspectRatio="xMidYMid meet" version="1.0"><defs><g/></defs><g fill="#ffffff" fill-opacity="1"><g transform="translate(39.557835, 218.711428)"><g><path d="M 2.875 -51.59375 C 2.875 -66.488281 7.953125 -79.097656 18.109375 -89.421875 C 28.265625 -99.753906 40.503906 -104.921875 54.828125 -104.921875 C 69.234375 -104.921875 81.472656 -99.773438 91.546875 -89.484375 C 101.628906 -79.203125 106.671875 -66.570312 106.671875 -51.59375 C 106.671875 -36.519531 101.710938 -23.835938 91.796875 -13.546875 C 81.890625 -3.265625 69.566406 1.875 54.828125 1.875 C 39.753906 1.875 27.328125 -3.222656 17.546875 -13.421875 C 7.765625 -23.628906 2.875 -36.351562 2.875 -51.59375 Z M 28.234375 -51.59375 C 28.234375 -46.175781 29.0625 -41.238281 30.71875 -36.78125 C 32.382812 -32.332031 35.300781 -28.566406 39.46875 -25.484375 C 43.632812 -22.398438 48.753906 -20.859375 54.828125 -20.859375 C 63.578125 -20.859375 70.175781 -23.851562 74.625 -29.84375 C 79.082031 -35.84375 81.3125 -43.09375 81.3125 -51.59375 C 81.3125 -60 79.039062 -67.21875 74.5 -73.25 C 69.96875 -79.289062 63.410156 -82.3125 54.828125 -82.3125 C 46.335938 -82.3125 39.78125 -79.289062 35.15625 -73.25 C 30.539062 -67.21875 28.234375 -60 28.234375 -51.59375 Z M 28.234375 -51.59375 "/></g></g></g><g fill="#ffffff" fill-opacity="1"><g transform="translate(137.336628, 218.711428)"><g><path d="M 100.671875 -57.703125 L 100.671875 -35.34375 C 98.003906 -23.101562 92.175781 -13.835938 83.1875 -7.546875 C 74.195312 -1.265625 64.160156 1.875 53.078125 1.875 C 39.171875 1.875 27.328125 -3.328125 17.546875 -13.734375 C 7.765625 -24.148438 2.875 -36.726562 2.875 -51.46875 C 2.875 -66.445312 7.660156 -79.097656 17.234375 -89.421875 C 26.804688 -99.753906 38.753906 -104.921875 53.078125 -104.921875 C 69.816406 -104.921875 83.0625 -99.050781 92.8125 -87.3125 L 77.4375 -70.453125 C 71.945312 -79.273438 64.285156 -83.6875 54.453125 -83.6875 C 47.210938 -83.6875 41.03125 -80.539062 35.90625 -74.25 C 30.789062 -67.96875 28.234375 -60.375 28.234375 -51.46875 C 28.234375 -42.71875 30.789062 -35.238281 35.90625 -29.03125 C 41.03125 -22.832031 47.210938 -19.734375 54.453125 -19.734375 C 60.453125 -19.734375 65.675781 -21.546875 70.125 -25.171875 C 74.582031 -28.796875 76.8125 -33.601562 76.8125 -39.59375 L 53.078125 -39.59375 L 53.078125 -57.703125 Z M 100.671875 -57.703125 "/></g></g></g><g fill="#ffffff" fill-opacity="1"><g transform="translate(229.121088, 218.711428)"><g><path d="M 1 -82.4375 L 1 -103.046875 L 73.4375 -103.046875 L 73.4375 -82.4375 L 48.96875 -82.4375 L 48.96875 0 L 25.484375 0 L 25.484375 -82.4375 Z M 1 -82.4375 "/></g></g></g><g fill="#ffffff" fill-opacity="1"><g transform="translate(291.808181, 218.711428)"><g><path d="M 21.734375 -26.734375 C 25.734375 -26.734375 29.125 -25.335938 31.90625 -22.546875 C 34.695312 -19.753906 36.09375 -16.359375 36.09375 -12.359375 C 36.09375 -8.453125 34.695312 -5.101562 31.90625 -2.3125 C 29.125 0.476562 25.734375 1.875 21.734375 1.875 C 17.816406 1.875 14.460938 0.476562 11.671875 -2.3125 C 8.890625 -5.101562 7.5 -8.453125 7.5 -12.359375 C 7.5 -16.359375 8.890625 -19.753906 11.671875 -22.546875 C 14.460938 -25.335938 17.816406 -26.734375 21.734375 -26.734375 Z M 21.734375 -26.734375 "/></g></g></g><g fill="#ffffff" fill-opacity="1"><g transform="translate(90.065702, 252.55641)"><g><path d="M 12.796875 -13.34375 C 13.148438 -13.34375 13.4375 -13.226562 13.65625 -13 C 13.882812 -12.78125 14 -12.488281 14 -12.125 L 14 -1.0625 C 14 0.300781 13.707031 1.4375 13.125 2.34375 C 12.550781 3.257812 11.769531 3.9375 10.78125 4.375 C 9.789062 4.8125 8.675781 5.03125 7.4375 5.03125 C 6.769531 5.03125 5.988281 4.910156 5.09375 4.671875 C 4.195312 4.441406 3.625 4.203125 3.375 3.953125 C 2.851562 3.679688 2.59375 3.34375 2.59375 2.9375 C 2.59375 2.84375 2.625 2.710938 2.6875 2.546875 C 2.875 2.117188 3.1875 1.90625 3.625 1.90625 C 3.84375 1.90625 4.078125 1.957031 4.328125 2.0625 C 5.660156 2.582031 6.707031 2.84375 7.46875 2.84375 C 8.8125 2.84375 9.835938 2.519531 10.546875 1.875 C 11.253906 1.226562 11.609375 0.34375 11.609375 -0.78125 L 11.609375 -2.140625 C 11.265625 -1.484375 10.675781 -0.921875 9.84375 -0.453125 C 9.007812 0.015625 8.132812 0.25 7.21875 0.25 C 6.0625 0.25 5.003906 -0.0390625 4.046875 -0.625 C 3.085938 -1.21875 2.335938 -2.035156 1.796875 -3.078125 C 1.253906 -4.128906 0.984375 -5.304688 0.984375 -6.609375 C 0.984375 -7.921875 1.253906 -9.097656 1.796875 -10.140625 C 2.335938 -11.191406 3.082031 -12.007812 4.03125 -12.59375 C 4.976562 -13.175781 6.023438 -13.46875 7.171875 -13.46875 C 8.085938 -13.46875 8.941406 -13.257812 9.734375 -12.84375 C 10.535156 -12.425781 11.160156 -11.914062 11.609375 -11.3125 L 11.609375 -12.125 C 11.609375 -12.46875 11.71875 -12.753906 11.9375 -12.984375 C 12.15625 -13.222656 12.441406 -13.34375 12.796875 -13.34375 Z M 7.484375 -1.96875 C 8.304688 -1.96875 9.035156 -2.160156 9.671875 -2.546875 C 10.316406 -2.941406 10.816406 -3.492188 11.171875 -4.203125 C 11.535156 -4.921875 11.71875 -5.722656 11.71875 -6.609375 C 11.71875 -7.492188 11.535156 -8.289062 11.171875 -9 C 10.816406 -9.707031 10.316406 -10.257812 9.671875 -10.65625 C 9.035156 -11.0625 8.304688 -11.265625 7.484375 -11.265625 C 6.679688 -11.265625 5.960938 -11.0625 5.328125 -10.65625 C 4.691406 -10.257812 4.191406 -9.703125 3.828125 -8.984375 C 3.472656 -8.273438 3.296875 -7.484375 3.296875 -6.609375 C 3.296875 -5.734375 3.472656 -4.941406 3.828125 -4.234375 C 4.191406 -3.523438 4.691406 -2.96875 5.328125 -2.5625 C 5.960938 -2.164062 6.679688 -1.96875 7.484375 -1.96875 Z M 7.484375 -1.96875 "/></g></g></g><g fill="#ffffff" fill-opacity="1"><g transform="translate(122.21048, 252.55641)"><g><path d="M 12.46875 -13.34375 C 12.820312 -13.34375 13.109375 -13.226562 13.328125 -13 C 13.554688 -12.78125 13.671875 -12.488281 13.671875 -12.125 L 13.671875 -1.203125 C 13.671875 -0.867188 13.554688 -0.582031 13.328125 -0.34375 C 13.109375 -0.113281 12.820312 0 12.46875 0 C 12.113281 0 11.828125 -0.109375 11.609375 -0.328125 C 11.390625 -0.554688 11.28125 -0.847656 11.28125 -1.203125 L 11.28125 -1.859375 C 10.851562 -1.273438 10.257812 -0.773438 9.5 -0.359375 C 8.75 0.046875 7.9375 0.25 7.0625 0.25 C 5.925781 0.25 4.890625 -0.0390625 3.953125 -0.625 C 3.023438 -1.21875 2.296875 -2.035156 1.765625 -3.078125 C 1.242188 -4.128906 0.984375 -5.304688 0.984375 -6.609375 C 0.984375 -7.921875 1.242188 -9.097656 1.765625 -10.140625 C 2.296875 -11.191406 3.019531 -12.007812 3.9375 -12.59375 C 4.863281 -13.175781 5.878906 -13.46875 6.984375 -13.46875 C 7.878906 -13.46875 8.707031 -13.285156 9.46875 -12.921875 C 10.226562 -12.554688 10.832031 -12.085938 11.28125 -11.515625 L 11.28125 -12.125 C 11.28125 -12.46875 11.390625 -12.753906 11.609375 -12.984375 C 11.828125 -13.222656 12.113281 -13.34375 12.46875 -13.34375 Z M 7.34375 -1.96875 C 8.125 -1.96875 8.820312 -2.164062 9.4375 -2.5625 C 10.050781 -2.96875 10.53125 -3.519531 10.875 -4.21875 C 11.21875 -4.925781 11.390625 -5.722656 11.390625 -6.609375 C 11.390625 -7.484375 11.21875 -8.269531 10.875 -8.96875 C 10.53125 -9.675781 10.050781 -10.234375 9.4375 -10.640625 C 8.820312 -11.054688 8.125 -11.265625 7.34375 -11.265625 C 6.550781 -11.265625 5.847656 -11.0625 5.234375 -10.65625 C 4.628906 -10.257812 4.15625 -9.707031 3.8125 -9 C 3.46875 -8.289062 3.296875 -7.492188 3.296875 -6.609375 C 3.296875 -5.722656 3.46875 -4.925781 3.8125 -4.21875 C 4.15625 -3.519531 4.628906 -2.96875 5.234375 -2.5625 C 5.847656 -2.164062 6.550781 -1.96875 7.34375 -1.96875 Z M 7.34375 -1.96875 "/></g></g></g><g fill="#ffffff" fill-opacity="1"><g transform="translate(154.028641, 252.55641)"><g><path d="M 16.890625 -13.40625 C 19.828125 -13.40625 21.296875 -11.578125 21.296875 -7.921875 L 21.296875 -1.203125 C 21.296875 -0.847656 21.1875 -0.554688 20.96875 -0.328125 C 20.75 -0.109375 20.460938 0 20.109375 0 C 19.753906 0 19.460938 -0.113281 19.234375 -0.34375 C 19.015625 -0.582031 18.90625 -0.867188 18.90625 -1.203125 L 18.90625 -7.890625 C 18.90625 -10.085938 17.984375 -11.1875 16.140625 -11.1875 C 15.484375 -11.1875 14.890625 -11.039062 14.359375 -10.75 C 13.835938 -10.457031 13.429688 -10.054688 13.140625 -9.546875 C 12.847656 -9.046875 12.703125 -8.492188 12.703125 -7.890625 L 12.703125 -1.203125 C 12.703125 -0.867188 12.585938 -0.582031 12.359375 -0.34375 C 12.128906 -0.113281 11.835938 0 11.484375 0 C 11.140625 0 10.859375 -0.109375 10.640625 -0.328125 C 10.421875 -0.554688 10.3125 -0.847656 10.3125 -1.203125 L 10.3125 -7.921875 C 10.3125 -8.910156 10.097656 -9.703125 9.671875 -10.296875 C 9.253906 -10.890625 8.5625 -11.1875 7.59375 -11.1875 C 6.601562 -11.1875 5.785156 -10.867188 5.140625 -10.234375 C 4.492188 -9.609375 4.171875 -8.835938 4.171875 -7.921875 L 4.171875 -1.203125 C 4.171875 -0.867188 4.054688 -0.582031 3.828125 -0.34375 C 3.609375 -0.113281 3.320312 0 2.96875 0 C 2.613281 0 2.328125 -0.109375 2.109375 -0.328125 C 1.890625 -0.554688 1.78125 -0.847656 1.78125 -1.203125 L 1.78125 -11.96875 C 1.78125 -12.300781 1.894531 -12.582031 2.125 -12.8125 C 2.351562 -13.050781 2.632812 -13.171875 2.96875 -13.171875 C 3.320312 -13.171875 3.609375 -13.050781 3.828125 -12.8125 C 4.054688 -12.582031 4.171875 -12.300781 4.171875 -11.96875 L 4.171875 -11.09375 C 4.609375 -11.738281 5.191406 -12.285156 5.921875 -12.734375 C 6.648438 -13.179688 7.441406 -13.40625 8.296875 -13.40625 C 10.367188 -13.40625 11.71875 -12.484375 12.34375 -10.640625 C 12.707031 -11.335938 13.316406 -11.972656 14.171875 -12.546875 C 15.035156 -13.117188 15.941406 -13.40625 16.890625 -13.40625 Z M 16.890625 -13.40625 "/></g></g></g><g fill="#ffffff" fill-opacity="1"><g transform="translate(193.484743, 252.55641)"><g><path d="M 13.34375 -7.09375 C 13.332031 -6.789062 13.207031 -6.535156 12.96875 -6.328125 C 12.738281 -6.117188 12.460938 -6.015625 12.140625 -6.015625 L 3.296875 -6.015625 C 3.410156 -4.785156 3.875 -3.800781 4.6875 -3.0625 C 5.5 -2.332031 6.492188 -1.96875 7.671875 -1.96875 C 8.472656 -1.96875 9.125 -2.082031 9.625 -2.3125 C 10.132812 -2.550781 10.582031 -2.851562 10.96875 -3.21875 C 11.21875 -3.363281 11.457031 -3.4375 11.6875 -3.4375 C 11.976562 -3.4375 12.21875 -3.335938 12.40625 -3.140625 C 12.601562 -2.941406 12.703125 -2.707031 12.703125 -2.4375 C 12.703125 -2.082031 12.53125 -1.765625 12.1875 -1.484375 C 11.707031 -0.992188 11.0625 -0.582031 10.25 -0.25 C 9.445312 0.0820312 8.628906 0.25 7.796875 0.25 C 6.429688 0.25 5.234375 -0.03125 4.203125 -0.59375 C 3.179688 -1.164062 2.390625 -1.960938 1.828125 -2.984375 C 1.265625 -4.015625 0.984375 -5.175781 0.984375 -6.46875 C 0.984375 -7.875 1.269531 -9.109375 1.84375 -10.171875 C 2.425781 -11.234375 3.191406 -12.046875 4.140625 -12.609375 C 5.085938 -13.179688 6.101562 -13.46875 7.1875 -13.46875 C 8.257812 -13.46875 9.265625 -13.191406 10.203125 -12.640625 C 11.140625 -12.085938 11.894531 -11.328125 12.46875 -10.359375 C 13.039062 -9.390625 13.332031 -8.300781 13.34375 -7.09375 Z M 7.1875 -11.265625 C 6.25 -11.265625 5.4375 -11 4.75 -10.46875 C 4.0625 -9.9375 3.609375 -9.117188 3.390625 -8.015625 L 10.8125 -8.015625 L 10.8125 -8.21875 C 10.726562 -9.101562 10.328125 -9.832031 9.609375 -10.40625 C 8.898438 -10.976562 8.09375 -11.265625 7.1875 -11.265625 Z M 7.1875 -11.265625 "/></g></g></g><g fill="#ffffff" fill-opacity="1"><g transform="translate(224.197386, 252.55641)"><g><path d="M 8.34375 -13.46875 C 8.78125 -13.46875 9.15625 -13.351562 9.46875 -13.125 C 9.789062 -12.90625 9.953125 -12.628906 9.953125 -12.296875 C 9.953125 -11.890625 9.847656 -11.582031 9.640625 -11.375 C 9.429688 -11.164062 9.175781 -11.0625 8.875 -11.0625 C 8.71875 -11.0625 8.492188 -11.113281 8.203125 -11.21875 C 7.847656 -11.332031 7.566406 -11.390625 7.359375 -11.390625 C 6.847656 -11.390625 6.34375 -11.207031 5.84375 -10.84375 C 5.351562 -10.488281 4.953125 -9.992188 4.640625 -9.359375 C 4.328125 -8.734375 4.171875 -8.035156 4.171875 -7.265625 L 4.171875 -1.203125 C 4.171875 -0.867188 4.054688 -0.582031 3.828125 -0.34375 C 3.609375 -0.113281 3.320312 0 2.96875 0 C 2.613281 0 2.328125 -0.109375 2.109375 -0.328125 C 1.890625 -0.554688 1.78125 -0.847656 1.78125 -1.203125 L 1.78125 -11.96875 C 1.78125 -12.300781 1.894531 -12.582031 2.125 -12.8125 C 2.351562 -13.050781 2.632812 -13.171875 2.96875 -13.171875 C 3.320312 -13.171875 3.609375 -13.050781 3.828125 -12.8125 C 4.054688 -12.582031 4.171875 -12.300781 4.171875 -11.96875 L 4.171875 -10.6875 C 4.535156 -11.507812 5.085938 -12.175781 5.828125 -12.6875 C 6.566406 -13.195312 7.40625 -13.457031 8.34375 -13.46875 Z M 8.34375 -13.46875 "/></g></g></g><g fill="#ffffff" fill-opacity="1"><g transform="translate(250.965448, 252.55641)"><g><path d="M 1.03125 -2.0625 C 0.875 -2.289062 0.796875 -2.515625 0.796875 -2.734375 C 0.796875 -3.078125 0.972656 -3.363281 1.328125 -3.59375 C 1.492188 -3.707031 1.6875 -3.765625 1.90625 -3.765625 C 2.207031 -3.765625 2.484375 -3.640625 2.734375 -3.390625 C 3.242188 -2.828125 3.785156 -2.398438 4.359375 -2.109375 C 4.941406 -1.828125 5.632812 -1.6875 6.4375 -1.6875 C 7.070312 -1.695312 7.628906 -1.84375 8.109375 -2.125 C 8.597656 -2.40625 8.84375 -2.851562 8.84375 -3.46875 C 8.84375 -4.039062 8.59375 -4.476562 8.09375 -4.78125 C 7.601562 -5.082031 6.882812 -5.359375 5.9375 -5.609375 C 5 -5.859375 4.21875 -6.117188 3.59375 -6.390625 C 2.976562 -6.671875 2.453125 -7.070312 2.015625 -7.59375 C 1.585938 -8.125 1.375 -8.816406 1.375 -9.671875 C 1.375 -10.429688 1.585938 -11.09375 2.015625 -11.65625 C 2.453125 -12.226562 3.023438 -12.671875 3.734375 -12.984375 C 4.441406 -13.304688 5.21875 -13.46875 6.0625 -13.46875 C 6.863281 -13.46875 7.660156 -13.316406 8.453125 -13.015625 C 9.253906 -12.710938 9.90625 -12.253906 10.40625 -11.640625 C 10.601562 -11.398438 10.703125 -11.15625 10.703125 -10.90625 C 10.703125 -10.644531 10.570312 -10.382812 10.3125 -10.125 C 10.144531 -9.976562 9.929688 -9.90625 9.671875 -9.90625 C 9.378906 -9.90625 9.140625 -10.003906 8.953125 -10.203125 C 8.597656 -10.609375 8.164062 -10.921875 7.65625 -11.140625 C 7.144531 -11.359375 6.578125 -11.46875 5.953125 -11.46875 C 5.316406 -11.46875 4.773438 -11.335938 4.328125 -11.078125 C 3.890625 -10.816406 3.671875 -10.375 3.671875 -9.75 C 3.691406 -9.164062 3.945312 -8.726562 4.4375 -8.4375 C 4.925781 -8.15625 5.6875 -7.882812 6.71875 -7.625 C 7.601562 -7.382812 8.335938 -7.128906 8.921875 -6.859375 C 9.515625 -6.597656 10.007812 -6.203125 10.40625 -5.671875 C 10.8125 -5.140625 11.015625 -4.445312 11.015625 -3.59375 C 11.015625 -2.800781 10.785156 -2.113281 10.328125 -1.53125 C 9.878906 -0.957031 9.289062 -0.515625 8.5625 -0.203125 C 7.832031 0.0976562 7.054688 0.25 6.234375 0.25 C 5.179688 0.25 4.207031 0.0664062 3.3125 -0.296875 C 2.414062 -0.671875 1.65625 -1.257812 1.03125 -2.0625 Z M 1.03125 -2.0625 "/></g></g></g><g fill="#ffffff" fill-opacity="1"><g transform="translate(279.3415, 252.55641)"><g><path d="M 2.640625 -0.03125 C 2.234375 -0.03125 1.925781 -0.132812 1.71875 -0.34375 C 1.507812 -0.5625 1.40625 -0.882812 1.40625 -1.3125 L 1.40625 -1.78125 C 1.40625 -2.1875 1.507812 -2.5 1.71875 -2.71875 C 1.925781 -2.9375 2.234375 -3.046875 2.640625 -3.046875 L 2.890625 -3.046875 C 3.304688 -3.046875 3.617188 -2.9375 3.828125 -2.71875 C 4.035156 -2.5 4.140625 -2.1875 4.140625 -1.78125 L 4.140625 -1.3125 C 4.140625 -0.457031 3.722656 -0.03125 2.890625 -0.03125 Z M 2.640625 -0.03125 "/></g></g></g></svg>