<?xml version="1.0" standalone="no"?>
<!DOCTYPE svg PUBLIC "-//W3C//DTD SVG 20010904//EN"
 "http://www.w3.org/TR/2001/REC-SVG-20010904/DTD/svg10.dtd">
<svg version="1.0" xmlns="http://www.w3.org/2000/svg"
 width="500.000000pt" height="203.000000pt" viewBox="0 0 500.000000 203.000000"
 preserveAspectRatio="xMidYMid meet">

<g transform="translate(0.000000,203.000000) scale(0.100000,-0.100000)"
fill="#ffffff" stroke="none">
<path d="M1105 1894 c-236 -50 -442 -243 -517 -484 -19 -63 -23 -96 -23 -215
0 -159 17 -233 83 -360 50 -96 172 -218 269 -268 148 -77 351 -100 516 -58
188 48 347 181 436 363 l37 76 32 -68 c64 -137 196 -273 325 -333 128 -61 315
-76 457 -36 215 59 375 210 434 408 12 40 16 96 16 208 l0 153 -315 0 -315 0
0 -120 0 -120 155 0 155 0 0 -32 c-1 -49 -31 -108 -78 -150 -53 -48 -85 -64
-155 -77 -217 -40 -406 150 -407 409 0 125 24 204 92 297 68 94 152 136 269
135 97 -1 174 -37 243 -113 l52 -58 95 106 c86 96 94 103 97 79 l3 -26 165 0
164 0 0 -550 0 -550 155 0 155 0 0 550 0 550 165 0 165 0 0 135 0 135 -485 0
-485 0 0 -97 0 -97 -42 40 c-89 84 -157 122 -269 154 -248 69 -498 10 -665
-156 -71 -71 -140 -174 -165 -245 l-12 -37 -32 67 c-143 295 -455 451 -770
385z m265 -306 c131 -41 218 -177 228 -359 8 -161 -31 -273 -124 -358 -92 -84
-246 -106 -371 -51 -70 30 -143 109 -173 185 -28 74 -38 222 -20 304 23 108
97 217 175 259 73 39 196 48 285 20z"/>
<path d="M4130 858 c-124 -36 -177 -180 -106 -288 34 -51 90 -80 156 -80 83 0
144 40 175 113 37 88 -2 199 -85 242 -37 19 -100 25 -140 13z"/>
<path d="M1243 216 c-57 -50 -22 -156 52 -156 17 0 36 5 43 12 9 9 12 7 12
-10 0 -29 -32 -44 -76 -36 -29 5 -36 4 -32 -7 3 -9 23 -15 54 -17 74 -4 88 15
93 130 2 59 -1 94 -8 101 -9 9 -14 8 -20 -2 -7 -10 -13 -10 -29 -2 -32 17 -58
13 -89 -13z m84 -14 c22 -14 32 -57 19 -83 -9 -18 -20 -24 -46 -24 -26 0 -37
6 -46 24 -26 52 27 112 73 83z"/>
<path d="M1667 220 c-44 -35 -44 -112 1 -146 21 -16 74 -18 89 -3 8 8 13 8 17
0 18 -28 26 -4 26 73 0 78 -10 111 -25 87 -4 -7 -15 -7 -31 -1 -36 14 -48 13
-77 -10z m85 -27 c40 -36 14 -107 -37 -101 -38 4 -58 40 -44 77 17 43 49 53
81 24z"/>
<path d="M2136 233 c-4 -4 -19 -7 -34 -8 -27 0 -27 -1 -30 -74 -2 -44 1 -78 8
-85 17 -17 30 12 30 70 0 52 12 74 42 74 25 0 38 -31 38 -95 0 -41 3 -56 13
-53 7 3 13 28 15 67 3 54 6 63 27 73 38 17 54 -3 57 -75 2 -37 8 -62 16 -65 9
-3 12 16 12 71 0 59 -4 77 -18 90 -23 21 -35 21 -70 3 -24 -12 -30 -12 -47 0
-20 15 -47 18 -59 7z"/>
<path d="M2614 217 c-37 -32 -39 -95 -5 -131 28 -29 84 -35 116 -13 24 18 11
41 -15 27 -39 -21 -90 -6 -90 27 0 8 21 13 62 15 75 4 86 22 40 68 -37 36 -71
38 -108 7z m84 -19 c21 -21 13 -28 -33 -28 -25 0 -45 4 -45 8 0 15 24 32 45
32 12 0 26 -5 33 -12z"/>
<path d="M3058 226 c-11 -10 -18 -12 -26 -4 -6 6 -15 7 -21 4 -15 -9 -14 -153
0 -162 18 -11 29 17 29 72 0 55 12 74 48 74 14 0 22 5 20 13 -7 18 -34 20 -50
3z"/>
<path d="M3382 224 c-40 -28 -19 -74 41 -89 36 -9 43 -23 23 -43 -16 -16 -19
-16 -47 1 -37 21 -57 13 -33 -14 26 -29 89 -26 109 5 22 33 9 55 -42 77 -26
11 -43 24 -41 32 6 16 47 22 61 8 14 -14 27 -14 27 0 0 17 -31 38 -55 39 -11
0 -31 -7 -43 -16z"/>
<path d="M3740 80 c0 -11 7 -20 15 -20 8 0 15 9 15 20 0 11 -7 20 -15 20 -8 0
-15 -9 -15 -20z"/>
</g>
</svg>
